<svg xmlns="http://www.w3.org/2000/svg" viewBox="0 0 100 100" width="100" height="100">
  <!-- Background circle for better visibility -->
  <circle cx="50" cy="50" r="48" fill="#2D6A4F" opacity="0.1"/>
  
  <!-- Paw Print -->
  <g transform="translate(10, 15)">
    <ellipse cx="30" cy="30" rx="8" ry="10" fill="#2D6A4F"/>
    <ellipse cx="48" cy="30" rx="8" ry="10" fill="#2D6A4F"/>
    <ellipse cx="25" cy="45" rx="7" ry="9" fill="#2D6A4F"/>
    <ellipse cx="53" cy="45" rx="7" ry="9" fill="#2D6A4F"/>
    <ellipse cx="39" cy="56" rx="11" ry="14" fill="#2D6A4F"/>
  </g>
  
  <!-- Home/House Symbol -->
  <g transform="translate(55, 30)">
    <!-- Roof -->
    <path d="M 0 12 L 12 0 L 24 12" 
          stroke="#F4A261" 
          stroke-width="3.5" 
          fill="none" 
          stroke-linecap="round"
          stroke-linejoin="round"/>
    <!-- House body -->
    <rect x="4" y="12" width="16" height="18" 
          fill="#52B788" 
          rx="2"/>
    <!-- Door -->
    <rect x="9" y="18" width="6" height="12" 
          fill="#F4A261" 
          rx="1"/>
  </g>
  
  <!-- Heart accent -->
  <path d="M 45 12 C 45 8 41 5 38 5 C 36 5 34 6.5 34 9 C 34 6.5 32 5 30 5 C 27 5 23 8 23 12 C 23 18 34 25 34 25 C 34 25 45 18 45 12 Z" 
        fill="#F4A261" 
        opacity="0.9"/>
</svg>